<svg version="1.1" id="Layer_1" xmlns="http://www.w3.org/2000/svg" xmlns:xlink="http://www.w3.org/1999/xlink" x="0px" y="0px"
	 width="100%" viewBox="0 0 370 159" enable-background="new 0 0 370 159" xml:space="preserve">
<path fill="#FDFEFE" opacity="1.000000" stroke="none" 
	d="
M234.000000,160.000000 
	C156.000015,160.000000 78.500015,160.000000 1.000021,160.000000 
	C1.000014,107.000015 1.000014,54.000031 1.000007,1.000035 
	C124.333305,1.000023 247.666611,1.000023 370.999939,1.000012 
	C370.999939,53.999966 370.999939,106.999931 370.999969,159.999939 
	C325.500000,160.000000 280.000000,160.000000 234.000000,160.000000 
M19.560003,92.398117 
	C19.041595,92.256638 18.523188,92.115158 17.279661,92.194092 
	C12.186083,93.871323 9.818217,97.025604 11.067904,100.468903 
	C12.725061,105.034904 16.618122,105.599487 23.227549,102.450348 
	C22.932188,98.774872 24.757160,94.092827 19.560003,92.398117 
M33.170334,81.151680 
	C31.930374,78.315796 35.306377,75.571861 32.266178,71.991821 
	C30.079355,69.416679 31.504559,68.148949 27.293863,70.575363 
	C26.948965,65.885658 26.952795,65.892746 22.909748,68.139420 
	C22.687576,68.262878 22.293964,68.157295 22.006409,68.070915 
	C19.892851,67.436096 13.405511,72.169312 13.283228,74.466476 
	C13.266154,74.787231 13.333331,75.135414 13.449680,75.436874 
	C15.122658,79.771683 16.810762,84.100655 18.882410,89.426369 
	C21.835163,87.002495 23.480400,85.651947 24.108837,85.136070 
	C27.137209,84.652100 29.165211,84.328003 31.886957,84.001526 
	C32.747562,83.763962 33.608170,83.526390 34.468777,83.288826 
	C33.970951,82.856514 33.473125,82.424202 33.170334,81.151680 
M65.821671,122.596245 
	C60.588348,122.399605 65.219536,127.967270 62.082294,128.995468 
	C64.122192,131.382767 65.913460,134.062042 68.274338,136.072403 
	C70.481094,137.951508 73.363564,139.584442 74.437347,135.873810 
	C76.989746,135.533035 79.685120,135.972824 80.580086,134.904449 
	C83.315292,131.639206 84.508766,126.875038 82.396950,122.651634 
	C81.099380,120.056618 76.846481,118.939354 73.920601,117.158539 
	C72.809662,121.097954 70.453606,117.464607 68.381371,118.134880 
	C68.004150,119.233948 67.541954,120.580605 66.765961,122.238152 
	C66.765961,122.238152 66.487419,122.580971 65.821671,122.596245 
M34.948372,102.181213 
	C34.697056,102.275612 34.445744,102.370003 33.620056,102.116913 
	C31.384380,103.458649 29.148703,104.800385 26.306297,106.506241 
	C25.564978,111.290962 25.844810,116.553833 31.541061,120.496147 
	C35.929401,123.533272 36.769897,121.300018 37.318840,118.459442 
	C39.000259,118.926613 41.104362,120.273804 42.398689,119.721893 
	C45.725197,118.303467 47.561504,110.074326 45.438259,105.842903 
	C44.832581,104.635849 42.243977,104.423805 40.058628,103.554108 
	C39.507236,100.873665 39.507236,100.873665 34.948372,102.181213 
M153.116791,70.635277 
	C151.346222,78.543388 149.575653,86.451492 147.737167,94.662933 
	C151.309067,94.662933 154.410645,94.662933 157.672012,94.662933 
	C159.502548,86.829422 161.292236,79.170731 163.340988,70.403404 
	C165.567230,77.588028 167.500748,83.581665 169.267227,89.624130 
	C170.273834,93.067322 172.090576,94.937660 175.964828,94.963089 
	C179.998398,94.989571 181.992767,93.223305 183.058197,89.474297 
	C184.658371,83.843712 186.605774,78.311813 188.405518,72.737946 
	C190.553680,77.511589 191.736267,82.256294 192.837982,87.019707 
	C194.721436,95.163094 194.700439,95.174713 202.975220,94.839485 
	C203.416977,94.821587 203.847839,94.534409 204.594498,94.257248 
	C202.098434,83.536049 199.535599,72.894798 197.179276,62.208015 
	C196.354965,58.469570 194.366623,56.966385 190.577194,56.954021 
	C186.769119,56.941605 183.788345,57.381386 182.601944,61.820496 
	C180.821548,68.482162 178.626556,75.033020 176.198578,82.968735 
	C173.912338,75.625114 171.682800,69.589897 170.208588,63.375492 
	C169.007339,58.311825 166.311386,56.739906 161.335617,56.911442 
	C156.324585,57.084190 155.382935,60.171371 154.730423,64.025421 
	C154.398956,65.983307 153.787903,67.893845 153.116791,70.635277 
M339.529541,66.963112 
	C337.147308,64.401634 335.179291,61.080051 332.266235,59.492760 
	C329.361115,57.909782 325.451935,57.480919 322.105469,57.806141 
	C321.069397,57.906826 319.909546,62.089363 319.725372,64.474030 
	C319.354462,69.276657 319.614563,74.128036 319.614471,78.959297 
	C319.614380,84.201004 319.614471,89.442711 319.614471,94.546936 
	C323.347443,94.546936 326.256073,94.546936 329.754456,94.546936 
	C329.754456,86.875511 329.754456,79.530914 329.754456,72.186317 
	C332.029755,73.062775 333.110565,74.492668 334.318329,75.805771 
	C339.393005,81.323044 344.227600,87.111206 349.754272,92.135628 
	C351.703461,93.907677 355.417206,94.369141 358.245087,94.186623 
	C359.176575,94.126503 360.344360,90.202797 360.544617,87.968697 
	C360.915039,83.836983 360.651489,79.648422 360.651611,75.483536 
	C360.651825,69.399933 360.651703,63.316326 360.651703,57.333153 
	C356.942596,57.333153 354.019470,57.333153 350.601898,57.333153 
	C350.601898,64.334404 350.601898,71.028900 350.601898,78.789955 
	C346.555481,74.468719 343.284760,70.975822 339.529541,66.963112 
M305.325165,92.051422 
	C313.067932,86.816437 316.099426,79.034737 313.740479,70.449875 
	C311.641998,62.812767 304.621643,57.532654 295.771545,57.070610 
	C292.948914,56.923244 290.099152,56.892231 287.282898,57.097374 
	C276.884125,57.854870 269.595856,65.003654 269.045685,74.831329 
	C268.486877,84.813713 274.680969,92.521614 285.136536,94.361580 
	C291.761902,95.527527 298.390778,95.404640 305.325165,92.051422 
M208.593552,79.491089 
	C208.593552,84.557312 208.593552,89.623528 208.593552,94.647461 
	C212.373215,94.647461 215.313904,94.647461 218.803558,94.647461 
	C218.803558,85.368500 218.803558,76.316261 218.803558,66.859863 
	C223.801834,66.859863 228.258942,66.937820 232.711807,66.834328 
	C236.058716,66.756531 238.412811,68.018631 238.491791,71.506081 
	C238.571228,75.013588 236.248611,76.405502 232.907272,76.370270 
	C229.301346,76.332237 225.694733,76.361671 221.954498,76.361671 
	C221.954498,79.681404 221.954498,82.403336 221.954498,85.271408 
	C226.745377,85.271408 231.234528,85.587303 235.662689,85.202042 
	C243.552475,84.515633 248.646408,78.992279 248.816711,71.514297 
	C248.980026,64.343765 244.182434,57.989429 236.679108,57.418514 
	C227.487411,56.719139 218.201981,57.251839 208.593887,57.251839 
	C208.593887,64.560776 208.593887,71.527306 208.593552,79.491089 
M123.545227,57.541553 
	C118.550774,55.859196 115.252159,57.662148 113.127571,62.359791 
	C111.966972,64.925964 110.427887,67.320457 109.068321,69.797226 
	C104.621315,77.898506 100.178368,86.002014 95.642464,94.271294 
	C105.908058,95.921738 105.902000,95.918503 110.330513,87.618469 
	C113.590248,81.508972 116.868462,75.409348 120.393272,68.829636 
	C122.588142,73.081696 124.456573,76.701370 126.422722,80.510338 
	C116.292679,81.647003 115.575348,82.169167 114.432426,89.006317 
	C117.118401,89.006317 119.778488,88.966652 122.436966,89.015244 
	C126.876549,89.096382 131.984756,87.565948 133.900864,93.856010 
	C134.067337,94.402542 135.531021,94.797012 136.411728,94.837631 
	C139.135269,94.963249 141.868271,94.883522 145.279678,94.883522 
	C141.137329,87.317955 137.484573,80.448708 133.640228,73.688423 
	C130.617676,68.373253 127.358589,63.192589 123.545227,57.541553 
M82.478180,57.019577 
	C78.985947,57.032051 75.481422,56.860149 72.003830,57.092068 
	C62.138397,57.749973 54.895126,64.309219 53.941467,73.239784 
	C52.868301,83.289482 57.937740,92.065758 67.238182,93.723259 
	C75.269516,95.154587 83.617393,94.809792 91.872650,95.252716 
	C91.872650,91.285217 91.872650,88.355087 91.872650,85.008308 
	C85.855568,85.008308 80.071739,85.047256 74.288673,84.997948 
	C67.803802,84.942657 64.044479,81.686615 63.933594,76.135986 
	C63.816444,70.271950 67.528923,66.925926 74.336746,66.866348 
	C80.110893,66.815804 85.885826,66.855927 91.754303,66.855927 
	C91.754303,63.301434 91.754303,60.273239 91.754303,57.019592 
	C88.750313,57.019592 86.106537,57.019592 82.478180,57.019577 
M263.995331,69.510834 
	C263.995331,65.422760 263.995331,61.334690 263.995331,57.326820 
	C260.000458,57.326820 256.614105,57.326820 253.305054,57.326820 
	C253.305054,70.013512 253.305054,82.376053 253.305054,94.673462 
	C256.998993,94.673462 260.385345,94.673462 263.995331,94.673462 
	C263.995331,86.405304 263.995331,78.456825 263.995331,69.510834 
M26.573921,41.356659 
	C26.842644,43.561913 26.276354,46.717442 27.521467,47.811520 
	C33.624340,53.174110 38.524258,52.731392 44.371521,47.078430 
	C46.695259,44.831909 47.287430,36.431229 44.799305,34.890560 
	C41.369400,32.766739 37.372650,31.315281 33.264320,32.326889 
	C31.939934,32.653000 31.084671,34.770161 29.937376,35.995480 
	C29.567917,36.390064 28.779781,36.428917 28.478945,36.844574 
	C27.616081,38.036755 26.904665,39.338543 26.573921,41.356659 
M118.896011,109.706558 
	C118.225082,109.075363 116.901360,108.340561 116.982605,107.828766 
	C117.966110,101.632690 113.865578,104.691887 111.449791,104.831612 
	C112.089958,101.558418 110.908203,100.760521 107.918419,101.701416 
	C105.103363,102.587311 102.016632,102.584770 101.061417,106.551643 
	C100.911606,107.173775 96.615395,106.877937 97.819923,110.404671 
	C98.501564,112.400429 99.123039,114.417274 99.835861,116.401543 
	C100.111336,117.168396 100.773216,117.837509 100.898727,118.609718 
	C101.332153,121.276474 103.528572,122.016411 105.426170,121.819954 
	C107.057068,121.651115 108.541954,120.071823 110.161858,119.072762 
	C111.698341,119.709801 113.603119,122.423080 115.120888,118.066879 
	C116.050369,115.399139 117.566528,112.935806 118.896011,109.706558 
M78.619171,18.122837 
	C77.547371,18.408709 76.475563,18.694578 76.473557,18.695114 
	C75.158569,17.245705 74.368355,16.374720 73.578148,15.503736 
	C71.827339,18.368042 66.365227,14.558075 65.868759,19.786955 
	C65.828918,20.206480 65.076454,20.926874 64.718735,20.890036 
	C61.535725,20.562262 61.415810,22.567986 61.990303,24.666363 
	C62.771160,27.518503 63.514389,30.512659 65.027817,32.984165 
	C65.967354,34.518494 68.283081,35.962132 70.018684,36.007439 
	C71.295334,36.040768 72.632851,33.742558 73.599312,32.813828 
	C74.769432,33.712505 76.347862,34.924778 77.813995,36.050800 
	C79.656113,32.144741 81.547424,28.134354 83.239098,24.547304 
	C81.917732,22.390650 80.632042,20.292221 78.619171,18.122837 
M107.586044,32.576370 
	C105.290382,33.028126 101.295631,30.576059 101.813553,35.962505 
	C101.835075,36.186314 100.524361,36.449364 99.934212,36.843655 
	C99.219116,37.321430 98.114777,37.896461 98.034744,38.536434 
	C97.440559,43.287918 98.861847,47.482353 102.682922,50.416214 
	C106.657211,53.467709 108.130608,52.738617 109.407532,47.676067 
	C111.584206,49.817806 112.923759,52.793472 115.951965,47.533451 
	C117.119858,45.504803 117.111855,43.858017 117.638748,42.034050 
	C119.106079,36.954521 116.376869,33.657738 111.636299,34.795238 
	C111.827156,32.027061 111.125572,30.395966 107.586044,32.576370 
M149.802017,113.305672 
	C150.480225,112.535362 151.158417,111.765053 151.836609,110.994743 
	C150.076248,109.457230 148.453110,106.838173 146.528671,106.594032 
	C141.627731,105.972275 136.576202,106.170593 131.615265,106.498840 
	C127.242233,106.788177 125.033485,109.579216 125.459969,113.961266 
	C125.886612,118.344955 129.236588,118.945305 132.783310,118.989334 
	C137.113922,119.043091 141.463242,118.832260 145.764664,119.200615 
	C146.980850,119.304771 148.728455,120.870651 149.018646,122.061806 
	C149.337723,123.371635 148.399948,126.255783 147.763657,126.329491 
	C142.696472,126.916504 137.546906,127.355019 132.477783,127.015488 
	C130.981750,126.915283 129.729996,124.107101 128.221573,122.694466 
	C127.754013,122.256599 126.808952,122.328621 126.031624,122.155907 
	C125.762199,127.259117 126.465965,129.118759 130.127014,129.434830 
	C135.892731,129.932632 141.748947,129.875839 147.531738,129.505661 
	C151.271027,129.266281 152.859741,126.426628 152.699402,122.773460 
	C152.532303,118.966209 150.436569,117.036400 146.652557,116.901665 
	C141.994476,116.735809 137.302933,116.835510 132.698257,116.250519 
	C131.295212,116.072266 129.136292,114.017349 129.129700,112.812019 
	C129.122696,111.533928 131.136444,109.321594 132.491592,109.133896 
	C136.413483,108.590652 140.505981,108.446754 144.411621,108.997040 
	C146.161636,109.243607 147.625687,111.519768 149.802017,113.305672 
M242.152161,120.347649 
	C246.931900,123.431076 248.890671,130.994537 256.539795,129.855911 
	C258.065826,117.478386 257.301697,107.724426 254.101654,105.840637 
	C254.101654,112.855400 254.101654,119.516434 254.101654,126.177467 
	C253.588318,126.466888 253.074982,126.756317 252.561646,127.045738 
	C246.619171,120.864105 240.796677,114.559151 234.654419,108.582863 
	C233.007599,106.980553 230.385971,106.380127 227.123199,104.788818 
	C227.123199,113.503624 227.081192,120.625633 227.185562,127.745483 
	C227.196487,128.490616 228.072617,129.223053 228.547333,129.961380 
	C229.164108,129.202606 230.242737,128.484009 230.312897,127.677681 
	C230.542984,125.033089 230.408752,122.356621 230.410690,119.692398 
	C230.412979,116.550453 230.411224,113.408508 230.411224,110.266556 
	C231.009979,110.050392 231.608734,109.834229 232.207489,109.618057 
	C235.354691,113.028809 238.501892,116.439552 242.152161,120.347649 
M354.494904,127.369400 
	C349.841980,127.485939 345.183289,127.774399 340.539581,127.617615 
	C339.086121,127.568542 336.487946,126.399590 336.434448,125.606796 
	C336.091553,120.529625 335.765076,115.304512 336.752960,110.393532 
	C336.983276,109.248528 342.291779,109.016991 345.295105,108.580994 
	C346.925171,108.344360 348.624481,108.500092 350.286774,108.588341 
	C353.545715,108.761330 357.240631,108.260979 357.634064,113.183151 
	C357.657043,113.470490 359.145844,113.640648 360.081970,113.901413 
	C360.839508,108.486115 358.222626,106.433121 353.697144,106.123222 
	C351.705322,105.986824 349.700470,106.016296 347.701508,106.012993 
	C332.402008,105.987686 330.828064,107.720673 332.196106,123.047653 
	C332.225739,123.379379 332.226532,123.714722 332.273621,124.043686 
	C332.793945,127.677475 334.868073,129.859589 338.541718,129.964432 
	C344.035431,130.121216 349.574677,130.353104 355.015625,129.790375 
	C356.933350,129.592041 358.809418,127.320679 360.300598,125.637886 
	C360.777374,125.099869 359.954132,123.409851 359.725677,122.246918 
	C358.918701,123.001755 358.058289,123.708282 357.319885,124.525101 
	C356.588074,125.334625 355.979156,126.255257 354.494904,127.369400 
M184.978165,123.690979 
	C183.871445,121.528564 183.128250,121.557220 181.807617,123.747414 
	C180.848236,125.338478 179.112198,127.312485 177.523895,127.508743 
	C173.262024,128.035355 168.890472,127.799332 164.568359,127.670044 
	C161.653397,127.582840 159.700211,125.952835 159.990112,122.929695 
	C160.439636,118.241905 157.688766,112.946907 162.417648,109.018295 
	C162.645432,108.829063 163.055084,108.792747 163.379181,108.795334 
	C168.528915,108.836342 173.682907,108.801056 178.823837,109.041756 
	C179.695236,109.082550 180.563263,110.273338 181.337402,111.030411 
	C182.231110,111.904419 183.019058,112.886559 183.852921,113.821747 
	C183.918243,112.332199 184.556015,110.487213 183.906662,109.441429 
	C183.060471,108.078621 181.311005,106.814781 179.739059,106.469353 
	C177.181122,105.907265 174.452316,106.034935 171.795135,106.026810 
	C156.862595,105.981163 154.919174,108.263435 156.606674,123.311562 
	C157.096619,127.680779 159.258316,129.995285 163.680542,130.023209 
	C168.674896,130.054749 173.669724,130.029648 178.664276,130.013382 
	C182.362686,130.001328 184.698822,128.411728 184.978165,123.690979 
M220.767776,127.840088 
	C214.522446,127.840088 208.277130,127.840088 202.102753,127.840088 
	C202.102753,124.418388 202.102753,121.857513 202.102753,118.551346 
	C208.734421,118.551346 215.003311,118.551346 221.272202,118.551346 
	C221.269058,117.971100 221.265930,117.390846 221.262802,116.810600 
	C214.849182,116.810600 208.435577,116.810600 202.139618,116.810600 
	C202.139618,113.438103 202.139618,111.053329 202.139618,107.883987 
	C208.974670,107.883987 215.406525,107.883987 221.838394,107.883987 
	C221.818161,107.440720 221.797943,106.997444 221.777710,106.554176 
	C214.203461,106.554176 206.629227,106.554176 198.973480,106.554176 
	C198.973480,114.333076 198.973480,121.926018 198.973480,130.010254 
	C206.355362,130.010254 213.477234,130.038437 220.596817,129.923981 
	C220.939697,129.918457 221.262360,128.656113 220.767776,127.840088 
M297.134918,127.122986 
	C297.632629,128.154327 298.130371,129.185669 298.628082,130.217026 
	C299.152924,130.087921 299.677734,129.958817 300.202576,129.829712 
	C300.202576,126.307503 300.202576,122.785301 300.202576,118.548935 
	C306.872711,118.548935 312.812012,118.548935 318.751343,118.548935 
	C318.748352,117.979675 318.745392,117.410408 318.742432,116.841148 
	C312.666931,116.841148 306.591400,116.841148 300.624908,116.841148 
	C300.624908,113.472099 300.624908,111.087364 300.624908,107.871109 
	C307.279327,107.871109 313.516113,107.871109 319.752899,107.871109 
	C319.730927,107.419762 319.708954,106.968407 319.686981,106.517059 
	C312.289490,106.517059 304.891968,106.517059 297.132446,106.517059 
	C297.132446,113.260178 297.132446,119.727097 297.134918,127.122986 
M56.036587,53.422886 
	C59.162579,55.559559 62.327644,54.065536 64.351562,52.225700 
	C68.106705,48.812092 65.566368,45.051632 63.244827,41.066650 
	C59.751881,42.549660 56.184116,44.064430 52.161053,45.772507 
	C53.474346,48.542229 54.496021,50.696934 56.036587,53.422886 
M57.271568,130.081421 
	C57.710445,129.882095 58.149326,129.682755 58.588200,129.483414 
	C58.459030,129.382919 58.344303,129.247925 58.198597,129.186951 
	C54.225655,127.524597 50.249546,125.869797 46.909904,124.478630 
	C45.931698,126.065369 44.780270,127.226746 44.489925,128.573730 
	C44.079948,130.475754 43.657867,132.842804 44.445763,134.402420 
	C45.217014,135.929092 47.550991,137.683304 49.106903,137.600754 
	C53.321217,137.377151 55.907288,134.653610 57.271568,130.081421 
M101.347733,20.006346 
	C99.380165,18.529531 97.364700,15.770069 95.454941,15.841387 
	C91.407700,15.992524 88.782104,18.949902 87.995995,23.497299 
	C89.688248,24.920990 91.299896,27.015402 93.405014,27.822180 
	C95.198959,28.509705 97.560638,27.715853 99.719925,27.574141 
	C100.245377,25.777086 100.991707,23.224653 101.347733,20.006346 
M59.468884,99.272278 
	C57.496334,100.913734 54.054028,102.361946 53.808361,104.230446 
	C52.801788,111.886192 59.356888,110.406494 63.811760,111.223434 
	C66.970757,102.482933 66.970757,102.482933 59.468884,99.272278 
M83.618240,42.824986 
	C81.093819,41.051941 80.504166,43.352947 79.894714,44.817524 
	C79.135643,46.641655 78.020981,48.893406 78.521179,50.507702 
	C79.044830,52.197655 81.410156,54.587132 82.776222,54.466721 
	C85.203438,54.252777 88.406410,52.973423 89.638908,51.072544 
	C92.426773,46.772865 90.275711,43.788113 83.618240,42.824986 
M89.874939,101.715073 
	C88.955009,101.211403 87.980629,100.785973 87.124702,100.190331 
	C83.664169,97.782166 80.519745,99.101585 79.070107,102.153206 
	C78.170570,104.046822 78.953697,107.281456 79.983223,109.435394 
	C82.035690,113.729477 85.388474,109.055542 88.063881,110.071938 
	C88.609085,107.545334 89.154297,105.018723 89.874939,101.715073 
M36.738777,89.196259 
	C38.066483,92.901817 39.096394,95.963593 44.663834,94.261612 
	C48.816311,92.992180 49.201199,90.342262 49.260639,87.490242 
	C49.333961,83.972229 45.654137,82.384071 43.381001,82.626503 
	C40.691143,82.913383 36.003437,83.102585 36.738777,89.196259 
M12.128175,58.211567 
	C13.072691,59.047050 14.187931,60.718708 14.930891,60.567017 
	C17.545111,60.033257 20.932760,59.555172 22.299461,57.748890 
	C23.535641,56.115108 23.520279,51.490978 22.244814,50.486698 
	C20.404633,49.037758 16.380636,48.612476 14.292316,49.692093 
	C11.929860,50.913437 9.078513,53.788666 12.128175,58.211567 
M42.879353,24.389414 
	C44.491226,27.485136 45.782616,28.945938 50.011185,26.758612 
	C53.770611,24.813959 55.620247,23.772284 54.164158,19.462198 
	C53.025780,16.092558 50.661537,15.220963 47.578426,16.231319 
	C44.037880,17.391579 41.294994,19.332796 42.879353,24.389414 
M97.713860,126.868546 
	C95.689186,124.516289 93.526901,125.511093 91.716591,126.949829 
	C89.398293,128.792282 87.628784,130.963608 89.539833,134.300262 
	C91.737381,138.137161 96.623062,138.969070 99.649971,135.840866 
	C102.371155,133.028625 101.778740,128.658463 97.713860,126.868546 
M284.140564,106.028122 
	C275.930969,106.028122 267.721375,106.028122 259.511780,106.028122 
	C259.505859,106.687950 259.499969,107.347778 259.494080,108.007614 
	C263.198700,108.196411 266.903351,108.385216 271.164948,108.602402 
	C271.164948,112.629532 270.906097,116.432549 271.243134,120.181992 
	C271.536713,123.448090 269.630127,127.370811 272.619965,130.023834 
	C273.184814,129.956146 273.749695,129.888474 274.314575,129.820801 
	C274.314575,122.785378 274.314575,115.749962 274.314575,108.294006 
	C278.033905,108.294006 281.009399,108.376266 283.969208,108.197968 
	C284.374573,108.173546 284.701721,106.851700 284.140564,106.028122 
M37.992359,68.229172 
	C39.695728,71.972565 42.748413,71.079613 45.377739,69.953545 
	C46.826321,69.333168 48.508167,67.640648 48.745991,66.209068 
	C49.060898,64.313484 48.712196,61.219116 47.483032,60.409359 
	C45.615276,59.178905 42.000870,58.351723 40.474159,59.370342 
	C38.091732,60.959888 34.890911,63.588963 37.992359,68.229172 
M192.944138,113.602188 
	C192.831802,111.107407 192.719452,108.612625 192.580917,105.536156 
	C189.983231,107.798653 188.794724,121.349480 190.015518,128.194672 
	C190.151199,128.955490 191.114685,129.568695 191.694260,130.250351 
	C192.110886,130.097763 192.527496,129.945175 192.944107,129.792587 
	C192.944107,124.719315 192.944107,119.646049 192.944138,113.602188 
M288.679382,119.483353 
	C288.679382,122.962776 288.679382,126.442207 288.679382,130.795547 
	C291.784698,128.264420 292.890442,116.708099 291.731262,108.397148 
	C291.602234,107.472046 290.709015,106.653534 290.170197,105.785583 
	C289.673157,105.932014 289.176086,106.078445 288.679047,106.224869 
	C288.679047,110.314690 288.679047,114.404503 288.679382,119.483353 
M324.105011,110.753914 
	C324.104675,128.668793 324.104675,128.668793 326.627563,129.882843 
	C326.627563,121.922981 326.627563,114.048782 326.627563,106.174583 
	C326.144073,106.089813 325.660614,106.005051 325.177124,105.920280 
	C324.819916,107.221359 324.462708,108.522446 324.105011,110.753914 
M40.298904,98.418678 
	C40.009163,98.634087 39.719421,98.849495 39.429688,99.064911 
	C39.606121,99.249641 39.782555,99.434372 39.958988,99.619102 
	C40.187191,99.339096 40.415394,99.059082 40.298904,98.418678 
z"/>
<path fill="#077084" opacity="1.000000" stroke="none" 
	d="
M153.210022,70.230530 
	C153.787903,67.893845 154.398956,65.983307 154.730423,64.025421 
	C155.382935,60.171371 156.324585,57.084190 161.335617,56.911442 
	C166.311386,56.739906 169.007339,58.311825 170.208588,63.375492 
	C171.682800,69.589897 173.912338,75.625114 176.198578,82.968735 
	C178.626556,75.033020 180.821548,68.482162 182.601944,61.820496 
	C183.788345,57.381386 186.769119,56.941605 190.577194,56.954021 
	C194.366623,56.966385 196.354965,58.469570 197.179276,62.208015 
	C199.535599,72.894798 202.098434,83.536049 204.594498,94.257248 
	C203.847839,94.534409 203.416977,94.821587 202.975220,94.839485 
	C194.700439,95.174713 194.721436,95.163094 192.837982,87.019707 
	C191.736267,82.256294 190.553680,77.511589 188.405518,72.737946 
	C186.605774,78.311813 184.658371,83.843712 183.058197,89.474297 
	C181.992767,93.223305 179.998398,94.989571 175.964828,94.963089 
	C172.090576,94.937660 170.273834,93.067322 169.267227,89.624130 
	C167.500748,83.581665 165.567230,77.588028 163.340988,70.403404 
	C161.292236,79.170731 159.502548,86.829422 157.672012,94.662933 
	C154.410645,94.662933 151.309067,94.662933 147.737167,94.662933 
	C149.575653,86.451492 151.346222,78.543388 153.210022,70.230530 
z"/>
<path fill="#077084" opacity="1.000000" stroke="none" 
	d="
M339.771790,67.223022 
	C343.284760,70.975822 346.555481,74.468719 350.601898,78.789955 
	C350.601898,71.028900 350.601898,64.334404 350.601898,57.333153 
	C354.019470,57.333153 356.942596,57.333153 360.651703,57.333153 
	C360.651703,63.316326 360.651825,69.399933 360.651611,75.483536 
	C360.651489,79.648422 360.915039,83.836983 360.544617,87.968697 
	C360.344360,90.202797 359.176575,94.126503 358.245087,94.186623 
	C355.417206,94.369141 351.703461,93.907677 349.754272,92.135628 
	C344.227600,87.111206 339.393005,81.323044 334.318329,75.805771 
	C333.110565,74.492668 332.029755,73.062775 329.754456,72.186317 
	C329.754456,79.530914 329.754456,86.875511 329.754456,94.546936 
	C326.256073,94.546936 323.347443,94.546936 319.614471,94.546936 
	C319.614471,89.442711 319.614380,84.201004 319.614471,78.959297 
	C319.614563,74.128036 319.354462,69.276657 319.725372,64.474030 
	C319.909546,62.089363 321.069397,57.906826 322.105469,57.806141 
	C325.451935,57.480919 329.361115,57.909782 332.266235,59.492760 
	C335.179291,61.080051 337.147308,64.401634 339.771790,67.223022 
z"/>
<path fill="#066F84" opacity="1.000000" stroke="none" 
	d="
M304.998901,92.244720 
	C298.390778,95.404640 291.761902,95.527527 285.136536,94.361580 
	C274.680969,92.521614 268.486877,84.813713 269.045685,74.831329 
	C269.595856,65.003654 276.884125,57.854870 287.282898,57.097374 
	C290.099152,56.892231 292.948914,56.923244 295.771545,57.070610 
	C304.621643,57.532654 311.641998,62.812767 313.740479,70.449875 
	C316.099426,79.034737 313.067932,86.816437 304.998901,92.244720 
M296.811584,84.927391 
	C302.885986,83.974976 304.785522,78.224068 304.099854,74.181931 
	C303.285156,69.379410 299.916962,66.930161 293.859131,66.854652 
	C291.859955,66.829727 289.852844,66.763062 287.861725,66.897781 
	C282.678406,67.248451 279.111481,71.008896 279.139618,75.965759 
	C279.167725,80.916222 282.742523,84.657654 287.947754,84.971886 
	C290.604034,85.132233 293.278473,84.991249 296.811584,84.927391 
z"/>
<path fill="#087085" opacity="1.000000" stroke="none" 
	d="
M208.593719,78.992462 
	C208.593887,71.527306 208.593887,64.560776 208.593887,57.251839 
	C218.201981,57.251839 227.487411,56.719139 236.679108,57.418514 
	C244.182434,57.989429 248.980026,64.343765 248.816711,71.514297 
	C248.646408,78.992279 243.552475,84.515633 235.662689,85.202042 
	C231.234528,85.587303 226.745377,85.271408 221.954498,85.271408 
	C221.954498,82.403336 221.954498,79.681404 221.954498,76.361671 
	C225.694733,76.361671 229.301346,76.332237 232.907272,76.370270 
	C236.248611,76.405502 238.571228,75.013588 238.491791,71.506081 
	C238.412811,68.018631 236.058716,66.756531 232.711807,66.834328 
	C228.258942,66.937820 223.801834,66.859863 218.803558,66.859863 
	C218.803558,76.316261 218.803558,85.368500 218.803558,94.647461 
	C215.313904,94.647461 212.373215,94.647461 208.593552,94.647461 
	C208.593552,89.623528 208.593552,84.557312 208.593719,78.992462 
z"/>
<path fill="#067084" opacity="1.000000" stroke="none" 
	d="
M123.874908,57.746864 
	C127.358589,63.192589 130.617676,68.373253 133.640228,73.688423 
	C137.484573,80.448708 141.137329,87.317955 145.279678,94.883522 
	C141.868271,94.883522 139.135269,94.963249 136.411728,94.837631 
	C135.531021,94.797012 134.067337,94.402542 133.900864,93.856010 
	C131.984756,87.565948 126.876549,89.096382 122.436966,89.015244 
	C119.778488,88.966652 117.118401,89.006317 114.432426,89.006317 
	C115.575348,82.169167 116.292679,81.647003 126.422722,80.510338 
	C124.456573,76.701370 122.588142,73.081696 120.393272,68.829636 
	C116.868462,75.409348 113.590248,81.508972 110.330513,87.618469 
	C105.902000,95.918503 105.908058,95.921738 95.642464,94.271294 
	C100.178368,86.002014 104.621315,77.898506 109.068321,69.797226 
	C110.427887,67.320457 111.966972,64.925964 113.127571,62.359791 
	C115.252159,57.662148 118.550774,55.859196 123.874908,57.746864 
z"/>
<path fill="#077084" opacity="1.000000" stroke="none" 
	d="
M82.970467,57.019585 
	C86.106537,57.019592 88.750313,57.019592 91.754303,57.019592 
	C91.754303,60.273239 91.754303,63.301434 91.754303,66.855927 
	C85.885826,66.855927 80.110893,66.815804 74.336746,66.866348 
	C67.528923,66.925926 63.816444,70.271950 63.933594,76.135986 
	C64.044479,81.686615 67.803802,84.942657 74.288673,84.997948 
	C80.071739,85.047256 85.855568,85.008308 91.872650,85.008308 
	C91.872650,88.355087 91.872650,91.285217 91.872650,95.252716 
	C83.617393,94.809792 75.269516,95.154587 67.238182,93.723259 
	C57.937740,92.065758 52.868301,83.289482 53.941467,73.239784 
	C54.895126,64.309219 62.138397,57.749973 72.003830,57.092068 
	C75.481422,56.860149 78.985947,57.032051 82.970467,57.019585 
z"/>
<path fill="#006C81" opacity="1.000000" stroke="none" 
	d="
M263.995331,70.009583 
	C263.995331,78.456825 263.995331,86.405304 263.995331,94.673462 
	C260.385345,94.673462 256.998993,94.673462 253.305054,94.673462 
	C253.305054,82.376053 253.305054,70.013512 253.305054,57.326820 
	C256.614105,57.326820 260.000458,57.326820 263.995331,57.326820 
	C263.995331,61.334690 263.995331,65.422760 263.995331,70.009583 
z"/>
<path fill="#097186" opacity="1.000000" stroke="none" 
	d="
M26.353817,40.976952 
	C26.904665,39.338543 27.616081,38.036755 28.478945,36.844574 
	C28.779781,36.428917 29.567917,36.390064 29.937376,35.995480 
	C31.084671,34.770161 31.939934,32.653000 33.264320,32.326889 
	C37.372650,31.315281 41.369400,32.766739 44.799305,34.890560 
	C47.287430,36.431229 46.695259,44.831909 44.371521,47.078430 
	C38.524258,52.731392 33.624340,53.174110 27.521467,47.811520 
	C26.276354,46.717442 26.842644,43.561913 26.353817,40.976952 
z"/>
<path fill="#0A7286" opacity="1.000000" stroke="none" 
	d="
M35.732773,101.998611 
	C39.507236,100.873665 39.507236,100.873665 40.058628,103.554108 
	C42.243977,104.423805 44.832581,104.635849 45.438259,105.842903 
	C47.561504,110.074326 45.725197,118.303467 42.398689,119.721893 
	C41.104362,120.273804 39.000259,118.926613 37.318840,118.459442 
	C36.769897,121.300018 35.929401,123.533272 31.541061,120.496147 
	C25.844810,116.553833 25.564978,111.290962 26.306297,106.506241 
	C29.148703,104.800385 31.384380,103.458649 34.015411,102.571777 
	C34.851433,102.683960 35.292103,102.341286 35.732773,101.998611 
z"/>
<path fill="#087185" opacity="1.000000" stroke="none" 
	d="
M67.079750,121.927261 
	C67.541954,120.580605 68.004150,119.233948 68.381371,118.134880 
	C70.453606,117.464607 72.809662,121.097954 73.920601,117.158539 
	C76.846481,118.939354 81.099380,120.056618 82.396950,122.651634 
	C84.508766,126.875038 83.315292,131.639206 80.580086,134.904449 
	C79.685120,135.972824 76.989746,135.533035 74.437347,135.873810 
	C73.363564,139.584442 70.481094,137.951508 68.274338,136.072403 
	C65.913460,134.062042 64.122192,131.382767 62.082294,128.995468 
	C65.219536,127.967270 60.588348,122.399605 66.359009,122.699692 
	C67.169800,122.706604 67.443268,122.610062 67.716728,122.513519 
	C67.504402,122.318100 67.292076,122.122681 67.079750,121.927261 
z"/>
<path fill="#087185" opacity="1.000000" stroke="none" 
	d="
M118.857613,110.043610 
	C117.566528,112.935806 116.050369,115.399139 115.120888,118.066879 
	C113.603119,122.423080 111.698341,119.709801 110.161858,119.072762 
	C108.541954,120.071823 107.057068,121.651115 105.426170,121.819954 
	C103.528572,122.016411 101.332153,121.276474 100.898727,118.609718 
	C100.773216,117.837509 100.111336,117.168396 99.835861,116.401543 
	C99.123039,114.417274 98.501564,112.400429 97.819923,110.404671 
	C96.615395,106.877937 100.911606,107.173775 101.061417,106.551643 
	C102.016632,102.584770 105.103363,102.587311 107.918419,101.701416 
	C110.908203,100.760521 112.089958,101.558418 111.449791,104.831612 
	C113.865578,104.691887 117.966110,101.632690 116.982605,107.828766 
	C116.901360,108.340561 118.225082,109.075363 118.857613,110.043610 
z"/>
<path fill="#0B7286" opacity="1.000000" stroke="none" 
	d="
M78.982758,18.158314 
	C80.632042,20.292221 81.917732,22.390650 83.239098,24.547304 
	C81.547424,28.134354 79.656113,32.144741 77.813995,36.050800 
	C76.347862,34.924778 74.769432,33.712505 73.599312,32.813828 
	C72.632851,33.742558 71.295334,36.040768 70.018684,36.007439 
	C68.283081,35.962132 65.967354,34.518494 65.027817,32.984165 
	C63.514389,30.512659 62.771160,27.518503 61.990303,24.666363 
	C61.415810,22.567986 61.535725,20.562262 64.718735,20.890036 
	C65.076454,20.926874 65.828918,20.206480 65.868759,19.786955 
	C66.365227,14.558075 71.827339,18.368042 73.578148,15.503736 
	C74.368355,16.374720 75.158569,17.245705 76.473557,18.695114 
	C76.475563,18.694578 77.547371,18.408709 78.982758,18.158314 
z"/>
<path fill="#0A7186" opacity="1.000000" stroke="none" 
	d="
M31.193214,84.003906 
	C29.165211,84.328003 27.137209,84.652100 24.108837,85.136070 
	C23.480400,85.651947 21.835163,87.002495 18.882410,89.426369 
	C16.810762,84.100655 15.122658,79.771683 13.449680,75.436874 
	C13.333331,75.135414 13.266154,74.787231 13.283228,74.466476 
	C13.405511,72.169312 19.892851,67.436096 22.006409,68.070915 
	C22.293964,68.157295 22.687576,68.262878 22.909748,68.139420 
	C26.952795,65.892746 26.948965,65.885658 27.293863,70.575363 
	C31.504559,68.148949 30.079355,69.416679 32.266178,71.991821 
	C35.306377,75.571861 31.930374,78.315796 32.753838,81.584641 
	C31.711752,82.086678 31.086163,82.155754 30.391796,82.232430 
	C30.681959,82.873810 30.937586,83.438858 31.193214,84.003906 
z"/>
<path fill="#087085" opacity="1.000000" stroke="none" 
	d="
M107.771622,32.242142 
	C111.125572,30.395966 111.827156,32.027061 111.636246,34.795303 
	C116.376869,33.657738 119.106079,36.954521 117.638748,42.034050 
	C117.111855,43.858017 117.119858,45.504803 115.951965,47.533451 
	C112.923759,52.793472 111.584206,49.817806 109.407532,47.676067 
	C108.130608,52.738617 106.657211,53.467709 102.682922,50.416214 
	C98.861847,47.482353 97.440559,43.287918 98.034744,38.536434 
	C98.114777,37.896461 99.219116,37.321430 99.934212,36.843655 
	C100.524361,36.449364 101.835075,36.186314 101.813553,35.962505 
	C101.295631,30.576059 105.290382,33.028126 107.771622,32.242142 
z"/>
<path fill="#7C7C81" opacity="1.000000" stroke="none" 
	d="
M149.510773,113.090286 
	C147.625687,111.519768 146.161636,109.243607 144.411621,108.997040 
	C140.505981,108.446754 136.413483,108.590652 132.491592,109.133896 
	C131.136444,109.321594 129.122696,111.533928 129.129700,112.812019 
	C129.136292,114.017349 131.295212,116.072266 132.698257,116.250519 
	C137.302933,116.835510 141.994476,116.735809 146.652557,116.901665 
	C150.436569,117.036400 152.532303,118.966209 152.699402,122.773460 
	C152.859741,126.426628 151.271027,129.266281 147.531738,129.505661 
	C141.748947,129.875839 135.892731,129.932632 130.127014,129.434830 
	C126.465965,129.118759 125.762199,127.259117 126.031624,122.155907 
	C126.808952,122.328621 127.754013,122.256599 128.221573,122.694466 
	C129.729996,124.107101 130.981750,126.915283 132.477783,127.015488 
	C137.546906,127.355019 142.696472,126.916504 147.763657,126.329491 
	C148.399948,126.255783 149.337723,123.371635 149.018646,122.061806 
	C148.728455,120.870651 146.980850,119.304771 145.764664,119.200615 
	C141.463242,118.832260 137.113922,119.043091 132.783310,118.989334 
	C129.236588,118.945305 125.886612,118.344955 125.459969,113.961266 
	C125.033485,109.579216 127.242233,106.788177 131.615265,106.498840 
	C136.576202,106.170593 141.627731,105.972275 146.528671,106.594032 
	C148.453110,106.838173 150.076248,109.457230 151.836609,110.994751 
	C151.158417,111.765053 150.480225,112.535362 149.510773,113.090286 
z"/>
<path fill="#827D83" opacity="1.000000" stroke="none" 
	d="
M241.900635,120.098969 
	C238.501892,116.439552 235.354691,113.028809 232.207489,109.618057 
	C231.608734,109.834229 231.009979,110.050392 230.411224,110.266556 
	C230.411224,113.408508 230.412979,116.550453 230.410690,119.692398 
	C230.408752,122.356621 230.542984,125.033089 230.312897,127.677681 
	C230.242737,128.484009 229.164108,129.202606 228.547333,129.961380 
	C228.072617,129.223053 227.196487,128.490616 227.185562,127.745483 
	C227.081192,120.625633 227.123199,113.503624 227.123199,104.788818 
	C230.385971,106.380127 233.007599,106.980553 234.654419,108.582863 
	C240.796677,114.559151 246.619171,120.864105 252.561646,127.045738 
	C253.074982,126.756317 253.588318,126.466888 254.101654,126.177467 
	C254.101654,119.516434 254.101654,112.855400 254.101654,105.840637 
	C257.301697,107.724426 258.065826,117.478386 256.539795,129.855911 
	C248.890671,130.994537 246.931900,123.431076 241.900635,120.098969 
z"/>
<path fill="#7D7B7E" opacity="1.000000" stroke="none" 
	d="
M354.905640,127.248276 
	C355.979156,126.255257 356.588074,125.334625 357.319885,124.525101 
	C358.058289,123.708282 358.918701,123.001755 359.725708,122.246918 
	C359.954132,123.409851 360.777374,125.099869 360.300598,125.637886 
	C358.809418,127.320679 356.933350,129.592041 355.015625,129.790375 
	C349.574677,130.353104 344.035431,130.121216 338.541718,129.964432 
	C334.868073,129.859589 332.793945,127.677475 332.273621,124.043686 
	C332.226532,123.714722 332.225739,123.379379 332.196106,123.047653 
	C330.828064,107.720673 332.402008,105.987686 347.701508,106.012993 
	C349.700470,106.016296 351.705322,105.986824 353.697144,106.123222 
	C358.222626,106.433121 360.839508,108.486115 360.081970,113.901413 
	C359.145844,113.640648 357.657043,113.470490 357.634064,113.183151 
	C357.240631,108.260979 353.545715,108.761330 350.286774,108.588341 
	C348.624481,108.500092 346.925171,108.344360 345.295105,108.580994 
	C342.291779,109.016991 336.983276,109.248528 336.752960,110.393532 
	C335.765076,115.304512 336.091553,120.529625 336.434448,125.606796 
	C336.487946,126.399590 339.086121,127.568542 340.539581,127.617615 
	C345.183289,127.774399 349.841980,127.485939 354.905640,127.248276 
z"/>
<path fill="#787A82" opacity="1.000000" stroke="none" 
	d="
M184.974670,124.086273 
	C184.698822,128.411728 182.362686,130.001328 178.664276,130.013382 
	C173.669724,130.029648 168.674896,130.054749 163.680542,130.023209 
	C159.258316,129.995285 157.096619,127.680779 156.606674,123.311562 
	C154.919174,108.263435 156.862595,105.981163 171.795135,106.026810 
	C174.452316,106.034935 177.181122,105.907265 179.739059,106.469353 
	C181.311005,106.814781 183.060471,108.078621 183.906662,109.441429 
	C184.556015,110.487213 183.918243,112.332199 183.852921,113.821747 
	C183.019058,112.886559 182.231110,111.904419 181.337402,111.030411 
	C180.563263,110.273338 179.695236,109.082550 178.823837,109.041756 
	C173.682907,108.801056 168.528915,108.836342 163.379181,108.795334 
	C163.055084,108.792747 162.645432,108.829063 162.417648,109.018295 
	C157.688766,112.946907 160.439636,118.241905 159.990112,122.929695 
	C159.700211,125.952835 161.653397,127.582840 164.568359,127.670044 
	C168.890472,127.799332 173.262024,128.035355 177.523895,127.508743 
	C179.112198,127.312485 180.848236,125.338478 181.807617,123.747414 
	C183.128250,121.557220 183.871445,121.528564 184.974670,124.086273 
z"/>
<path fill="#72767E" opacity="1.000000" stroke="none" 
	d="
M221.181091,127.909561 
	C221.262360,128.656113 220.939697,129.918457 220.596817,129.923981 
	C213.477234,130.038437 206.355362,130.010254 198.973480,130.010254 
	C198.973480,121.926018 198.973480,114.333076 198.973480,106.554176 
	C206.629227,106.554176 214.203461,106.554176 221.777710,106.554176 
	C221.797943,106.997444 221.818161,107.440720 221.838394,107.883987 
	C215.406525,107.883987 208.974670,107.883987 202.139618,107.883987 
	C202.139618,111.053329 202.139618,113.438103 202.139618,116.810600 
	C208.435577,116.810600 214.849182,116.810600 221.262802,116.810600 
	C221.265930,117.390846 221.269058,117.971100 221.272202,118.551346 
	C215.003311,118.551346 208.734421,118.551346 202.102753,118.551346 
	C202.102753,121.857513 202.102753,124.418388 202.102753,127.840088 
	C208.277130,127.840088 214.522446,127.840088 221.181091,127.909561 
z"/>
<path fill="#7F797A" opacity="1.000000" stroke="none" 
	d="
M297.133667,126.658501 
	C297.132446,119.727097 297.132446,113.260178 297.132446,106.517059 
	C304.891968,106.517059 312.289490,106.517059 319.686981,106.517059 
	C319.708954,106.968407 319.730927,107.419762 319.752899,107.871109 
	C313.516113,107.871109 307.279327,107.871109 300.624908,107.871109 
	C300.624908,111.087364 300.624908,113.472099 300.624908,116.841148 
	C306.591400,116.841148 312.666931,116.841148 318.742432,116.841148 
	C318.745392,117.410408 318.748352,117.979675 318.751343,118.548935 
	C312.812012,118.548935 306.872711,118.548935 300.202576,118.548935 
	C300.202576,122.785301 300.202576,126.307503 300.202576,129.829712 
	C299.677734,129.958817 299.152924,130.087921 298.628082,130.217026 
	C298.130371,129.185669 297.632629,128.154327 297.133667,126.658501 
z"/>
<path fill="#15788B" opacity="1.000000" stroke="none" 
	d="
M55.777142,53.137260 
	C54.496021,50.696934 53.474346,48.542229 52.161053,45.772507 
	C56.184116,44.064430 59.751881,42.549660 63.244827,41.066650 
	C65.566368,45.051632 68.106705,48.812092 64.351562,52.225700 
	C62.327644,54.065536 59.162579,55.559559 55.777142,53.137260 
z"/>
<path fill="#14778A" opacity="1.000000" stroke="none" 
	d="
M56.915070,130.212341 
	C55.907288,134.653610 53.321217,137.377151 49.106903,137.600754 
	C47.550991,137.683304 45.217014,135.929092 44.445763,134.402420 
	C43.657867,132.842804 44.079948,130.475754 44.489925,128.573730 
	C44.780270,127.226746 45.931698,126.065369 46.909904,124.478630 
	C50.249546,125.869797 54.225655,127.524597 58.198597,129.186951 
	C58.344303,129.247925 58.459030,129.382919 58.588203,129.483414 
	C58.149326,129.682755 57.710445,129.882095 56.915070,130.212341 
z"/>
<path fill="#12768A" opacity="1.000000" stroke="none" 
	d="
M101.542885,20.339283 
	C100.991707,23.224653 100.245377,25.777086 99.719925,27.574141 
	C97.560638,27.715853 95.198959,28.509705 93.405014,27.822180 
	C91.299896,27.015402 89.688248,24.920990 87.995995,23.497299 
	C88.782104,18.949902 91.407700,15.992524 95.454941,15.841387 
	C97.364700,15.770069 99.380165,18.529531 101.542885,20.339283 
z"/>
<path fill="#15788B" opacity="1.000000" stroke="none" 
	d="
M59.809006,99.089920 
	C66.970757,102.482933 66.970757,102.482933 63.811760,111.223434 
	C59.356888,110.406494 52.801788,111.886192 53.808361,104.230446 
	C54.054028,102.361946 57.496334,100.913734 59.809006,99.089920 
z"/>
<path fill="#197A8D" opacity="1.000000" stroke="none" 
	d="
M83.859932,42.543056 
	C90.275711,43.788113 92.426773,46.772865 89.638908,51.072544 
	C88.406410,52.973423 85.203438,54.252777 82.776222,54.466721 
	C81.410156,54.587132 79.044830,52.197655 78.521179,50.507702 
	C78.020981,48.893406 79.135643,46.641655 79.894714,44.817524 
	C80.504166,43.352947 81.093819,41.051941 83.859932,42.543056 
z"/>
<path fill="#0E7488" opacity="1.000000" stroke="none" 
	d="
M89.787224,102.103592 
	C89.154297,105.018723 88.609085,107.545334 88.063881,110.071938 
	C85.388474,109.055542 82.035690,113.729477 79.983223,109.435394 
	C78.953697,107.281456 78.170570,104.046822 79.070107,102.153206 
	C80.519745,99.101585 83.664169,97.782166 87.124702,100.190331 
	C87.980629,100.785973 88.955009,101.211403 89.787224,102.103592 
z"/>
<path fill="#15788B" opacity="1.000000" stroke="none" 
	d="
M19.142654,92.944298 
	C24.757160,94.092827 22.932188,98.774872 23.227549,102.450348 
	C16.618122,105.599487 12.725061,105.034904 11.067904,100.468903 
	C9.818217,97.025604 12.186083,93.871323 17.747644,92.332703 
	C18.524635,92.628983 18.833645,92.786636 19.142654,92.944298 
z"/>
<path fill="#107588" opacity="1.000000" stroke="none" 
	d="
M36.824604,88.782501 
	C36.003437,83.102585 40.691143,82.913383 43.381001,82.626503 
	C45.654137,82.384071 49.333961,83.972229 49.260639,87.490242 
	C49.201199,90.342262 48.816311,92.992180 44.663834,94.261612 
	C39.096394,95.963593 38.066483,92.901817 36.824604,88.782501 
z"/>
<path fill="#107588" opacity="1.000000" stroke="none" 
	d="
M11.882593,57.880016 
	C9.078513,53.788666 11.929860,50.913437 14.292316,49.692093 
	C16.380636,48.612476 20.404633,49.037758 22.244814,50.486698 
	C23.520279,51.490978 23.535641,56.115108 22.299461,57.748890 
	C20.932760,59.555172 17.545111,60.033257 14.930891,60.567017 
	C14.187931,60.718708 13.072691,59.047050 11.882593,57.880016 
z"/>
<path fill="#107589" opacity="1.000000" stroke="none" 
	d="
M42.622066,24.086609 
	C41.294994,19.332796 44.037880,17.391579 47.578426,16.231319 
	C50.661537,15.220963 53.025780,16.092558 54.164158,19.462198 
	C55.620247,23.772284 53.770611,24.813959 50.011185,26.758612 
	C45.782616,28.945938 44.491226,27.485136 42.622066,24.086609 
z"/>
<path fill="#117689" opacity="1.000000" stroke="none" 
	d="
M98.079880,126.913528 
	C101.778740,128.658463 102.371155,133.028625 99.649971,135.840866 
	C96.623062,138.969070 91.737381,138.137161 89.539833,134.300262 
	C87.628784,130.963608 89.398293,128.792282 91.716591,126.949829 
	C93.526901,125.511093 95.689186,124.516289 98.079880,126.913528 
z"/>
<path fill="#837B79" opacity="1.000000" stroke="none" 
	d="
M284.602844,106.079330 
	C284.701721,106.851700 284.374573,108.173546 283.969208,108.197968 
	C281.009399,108.376266 278.033905,108.294006 274.314575,108.294006 
	C274.314575,115.749962 274.314575,122.785378 274.314575,129.820801 
	C273.749695,129.888474 273.184814,129.956146 272.619965,130.023834 
	C269.630127,127.370811 271.536713,123.448090 271.243134,120.181992 
	C270.906097,116.432549 271.164948,112.629532 271.164948,108.602402 
	C266.903351,108.385216 263.198700,108.196411 259.494080,108.007614 
	C259.499969,107.347778 259.505859,106.687950 259.511780,106.028122 
	C267.721375,106.028122 275.930969,106.028122 284.602844,106.079330 
z"/>
<path fill="#0D7387" opacity="1.000000" stroke="none" 
	d="
M37.731468,67.910645 
	C34.890911,63.588963 38.091732,60.959888 40.474159,59.370342 
	C42.000870,58.351723 45.615276,59.178905 47.483032,60.409359 
	C48.712196,61.219116 49.060898,64.313484 48.745991,66.209068 
	C48.508167,67.640648 46.826321,69.333168 45.377739,69.953545 
	C42.748413,71.079613 39.695728,71.972565 37.731468,67.910645 
z"/>
<path fill="#7B7686" opacity="1.000000" stroke="none" 
	d="
M192.944122,114.087486 
	C192.944107,119.646049 192.944107,124.719315 192.944107,129.792587 
	C192.527496,129.945175 192.110886,130.097763 191.694260,130.250351 
	C191.114685,129.568695 190.151199,128.955490 190.015518,128.194672 
	C188.794724,121.349480 189.983231,107.798653 192.580917,105.536156 
	C192.719452,108.612625 192.831802,111.107407 192.944122,114.087486 
z"/>
<path fill="#758395" opacity="1.000000" stroke="none" 
	d="
M288.679199,118.988838 
	C288.679047,114.404503 288.679047,110.314690 288.679047,106.224869 
	C289.176086,106.078445 289.673157,105.932014 290.170197,105.785583 
	C290.709015,106.653534 291.602234,107.472046 291.731262,108.397148 
	C292.890442,116.708099 291.784698,128.264420 288.679382,130.795547 
	C288.679382,126.442207 288.679382,122.962776 288.679199,118.988838 
z"/>
<path fill="#8A7C79" opacity="1.000000" stroke="none" 
	d="
M324.105225,110.288719 
	C324.462708,108.522446 324.819916,107.221359 325.177124,105.920280 
	C325.660614,106.005051 326.144073,106.089813 326.627563,106.174583 
	C326.627563,114.048782 326.627563,121.922981 326.627563,129.882843 
	C324.104675,128.668793 324.104675,128.668793 324.105225,110.288719 
z"/>
<path fill="#F8FBFB" opacity="1.000000" stroke="none" 
	d="
M31.540085,84.002716 
	C30.937586,83.438858 30.681959,82.873810 30.391796,82.232430 
	C31.086163,82.155754 31.711752,82.086678 32.656319,82.004745 
	C33.473125,82.424202 33.970951,82.856514 34.468777,83.288826 
	C33.608170,83.526390 32.747562,83.763962 31.540085,84.002716 
z"/>
<path fill="#F8FBFB" opacity="1.000000" stroke="none" 
	d="
M40.471252,98.598877 
	C40.415394,99.059082 40.187191,99.339096 39.958992,99.619102 
	C39.782555,99.434372 39.606121,99.249641 39.429688,99.064911 
	C39.719421,98.849495 40.009163,98.634087 40.471252,98.598877 
z"/>
<path fill="#F8FBFB" opacity="1.000000" stroke="none" 
	d="
M35.340572,102.089912 
	C35.292103,102.341286 34.851433,102.683960 34.302597,102.745514 
	C34.445744,102.370003 34.697056,102.275612 35.340572,102.089912 
z"/>
<path fill="#F8FBFB" opacity="1.000000" stroke="none" 
	d="
M19.351330,92.671204 
	C18.833645,92.786636 18.524635,92.628983 18.110203,92.222504 
	C18.523188,92.115158 19.041595,92.256638 19.351330,92.671204 
z"/>
<path fill="#FAFCFD" opacity="1.000000" stroke="none" 
	d="
M296.378143,84.956932 
	C293.278473,84.991249 290.604034,85.132233 287.947754,84.971886 
	C282.742523,84.657654 279.167725,80.916222 279.139618,75.965759 
	C279.111481,71.008896 282.678406,67.248451 287.861725,66.897781 
	C289.852844,66.763062 291.859955,66.829727 293.859131,66.854652 
	C299.916962,66.930161 303.285156,69.379410 304.099854,74.181931 
	C304.785522,78.224068 302.885986,83.974976 296.378143,84.956932 
z"/>
<path fill="#FDFEFE" opacity="1.000000" stroke="none" 
	d="
M66.922852,122.082703 
	C67.292076,122.122681 67.504402,122.318100 67.716728,122.513519 
	C67.443268,122.610062 67.169800,122.706604 66.691879,122.692055 
	C66.487419,122.580971 66.765961,122.238152 66.922852,122.082703 
z"/>
</svg>